<?xml version="1.0" encoding="UTF-8"?>
<svg xmlns="http://www.w3.org/2000/svg" xmlns:xlink="http://www.w3.org/1999/xlink" width="92px" height="29px" viewBox="0 0 90 29" version="1.1">
    <defs>
        <linearGradient id="linear0" gradientUnits="userSpaceOnUse" x1="52.93" y1="545.4003" x2="1310.52" y2="545.4003" gradientTransform="matrix(0.0658708,0,0,0.0660442,0.0102482,-21.530403)">
            <stop offset="0" style="stop-color:rgb(0%,64.705882%,100%);stop-opacity:1;"/>
            <stop offset="1" style="stop-color:rgb(100%,11.372549%,40%);stop-opacity:1;"/>
        </linearGradient>
        <linearGradient id="linear1" gradientUnits="userSpaceOnUse" x1="52.93" y1="545.55" x2="1310.52" y2="545.55" gradientTransform="matrix(0.0658708,0,0,0.0660442,0.0102482,-21.530403)">
            <stop offset="0" style="stop-color:rgb(0%,64.705882%,100%);stop-opacity:1;"/>
            <stop offset="1" style="stop-color:rgb(100%,11.372549%,40%);stop-opacity:1;"/>
        </linearGradient>
        <linearGradient id="linear2" gradientUnits="userSpaceOnUse" x1="52.93" y1="545.5" x2="1310.52" y2="545.5" gradientTransform="matrix(0.0658708,0,0,0.0660442,0.0102482,-21.530403)">
            <stop offset="0" style="stop-color:rgb(0%,64.705882%,100%);stop-opacity:1;"/>
            <stop offset="1" style="stop-color:rgb(100%,11.372549%,40%);stop-opacity:1;"/>
        </linearGradient>
        <linearGradient id="linear3" gradientUnits="userSpaceOnUse" x1="52.93" y1="545.5" x2="1310.52" y2="545.5" gradientTransform="matrix(0.0658708,0,0,0.0660442,0.0102482,-21.530403)">
            <stop offset="0" style="stop-color:rgb(0%,64.705882%,100%);stop-opacity:1;"/>
            <stop offset="1" style="stop-color:rgb(100%,11.372549%,40%);stop-opacity:1;"/>
        </linearGradient>
        <linearGradient id="linear4" gradientUnits="userSpaceOnUse" x1="52.93" y1="545.7579" x2="1310.52" y2="545.7579" gradientTransform="matrix(0.0658708,0,0,0.0660442,0.0102482,-21.530403)">
            <stop offset="0" style="stop-color:rgb(0%,64.705882%,100%);stop-opacity:1;"/>
            <stop offset="1" style="stop-color:rgb(100%,11.372549%,40%);stop-opacity:1;"/>
        </linearGradient>
    </defs>
    <g id="surface1">
        <path style=" stroke:none;fill-rule:nonzero;fill:rgb(100%,10.196078%,36.078431%);fill-opacity:1;" d="M 27.035156 7.707031 L 27.035156 6.128906 C 27.035156 5.820312 26.785156 5.566406 26.476562 5.566406 L 24.25 5.566406 C 23.941406 5.566406 23.691406 5.820312 23.691406 6.128906 L 23.691406 14.742188 C 25.101562 12.226562 24.996094 9.363281 27.035156 7.707031 Z M 27.035156 7.707031 "/>
        <path style=" stroke:none;fill-rule:nonzero;fill:url(#linear0);" d="M 20.90625 5.5625 L 18.679688 5.5625 C 18.367188 5.5625 18.117188 5.8125 18.117188 6.121094 L 18.117188 14.496094 C 18.117188 17.59375 15.589844 20.109375 12.492188 20.085938 C 9.421875 20.050781 6.980469 17.5 6.980469 14.429688 L 6.980469 6.117188 C 6.980469 5.804688 6.730469 5.554688 6.425781 5.554688 L 4.191406 5.554688 C 3.882812 5.554688 3.632812 5.804688 3.632812 6.117188 L 3.632812 14.402344 C 3.632812 19.34375 7.59375 23.414062 12.519531 23.425781 C 17.445312 23.4375 21.457031 19.421875 21.457031 14.488281 L 21.457031 6.117188 C 21.464844 5.8125 21.214844 5.5625 20.90625 5.5625 Z M 20.90625 5.5625 "/>
        <path style=" stroke:none;fill-rule:nonzero;fill:url(#linear1);" d="M 32.601562 5.5625 L 32.578125 5.5625 C 27.648438 5.574219 23.691406 9.640625 23.691406 14.582031 L 23.691406 22.878906 C 23.691406 23.1875 23.941406 23.4375 24.25 23.4375 L 26.476562 23.4375 C 26.785156 23.4375 27.035156 23.1875 27.035156 22.878906 L 27.035156 14.496094 C 27.035156 11.398438 29.566406 8.882812 32.664062 8.910156 C 35.730469 8.9375 38.175781 11.492188 38.175781 14.5625 L 38.175781 22.871094 C 38.175781 23.179688 38.425781 23.433594 38.734375 23.433594 L 40.960938 23.433594 C 41.273438 23.433594 41.523438 23.179688 41.523438 22.871094 L 41.523438 14.496094 C 41.515625 9.570312 37.515625 5.5625 32.601562 5.5625 Z M 32.601562 5.5625 "/>
        <path style=" stroke:none;fill-rule:nonzero;fill:url(#linear2);" d="M 77.449219 5.5625 C 72.535156 5.5625 68.535156 9.570312 68.535156 14.496094 C 68.535156 19.421875 72.535156 23.433594 77.449219 23.433594 C 82.363281 23.433594 86.359375 19.421875 86.359375 14.496094 C 86.359375 9.570312 82.363281 5.5625 77.449219 5.5625 Z M 77.449219 20.078125 C 74.378906 20.078125 71.875 17.574219 71.875 14.488281 C 71.875 11.40625 74.371094 8.902344 77.449219 8.902344 C 80.523438 8.902344 83.019531 11.40625 83.019531 14.488281 C 83.019531 17.574219 80.515625 20.078125 77.449219 20.078125 Z M 77.449219 20.078125 "/>
        <path style=" stroke:none;fill-rule:nonzero;fill:url(#linear3);" d="M 44.300781 5.5625 L 46.527344 5.5625 C 46.835938 5.5625 47.089844 5.8125 47.089844 6.117188 L 47.089844 22.871094 C 47.089844 23.179688 46.835938 23.433594 46.527344 23.433594 L 44.300781 23.433594 C 43.992188 23.433594 43.742188 23.179688 43.742188 22.871094 L 43.742188 6.117188 C 43.75 5.8125 44 5.5625 44.300781 5.5625 Z M 44.300781 5.5625 "/>
        <path style=" stroke:none;fill-rule:nonzero;fill:url(#linear4);" d="M 65.925781 17.03125 L 63.273438 17.03125 C 63.0625 17.03125 62.871094 17.144531 62.765625 17.324219 C 61.796875 18.980469 60 20.105469 57.945312 20.097656 C 54.972656 20.089844 52.507812 17.714844 52.390625 14.734375 C 52.265625 11.558594 54.816406 8.929688 57.957031 8.929688 C 59.992188 8.929688 61.777344 10.03125 62.753906 11.675781 C 62.871094 11.875 63.082031 11.992188 63.304688 11.992188 L 65.921875 11.992188 C 66.21875 11.992188 66.421875 11.695312 66.316406 11.417969 C 65.019531 7.917969 61.597656 5.449219 57.632812 5.585938 C 52.957031 5.753906 49.183594 9.570312 49.050781 14.253906 C 48.90625 19.292969 52.957031 23.445312 57.949219 23.445312 C 61.785156 23.445312 65.058594 21.007812 66.308594 17.59375 C 66.414062 17.316406 66.21875 17.03125 65.925781 17.03125 Z M 65.925781 17.03125 "/>
    </g>
</svg>
